<svg width="124" height="113" viewBox="0 0 124 113" fill="none" xmlns="http://www.w3.org/2000/svg">
<path d="M69.6111 5.38888C69.6111 5.38888 69.6111 -9.53674e-06 75 -9.53674e-06C80.3889 -9.53674e-06 80.3889 5.38888 80.3889 5.38888V10.7778C80.3889 10.7778 80.3889 16.1667 75 16.1667C69.6111 16.1667 69.6111 10.7778 69.6111 10.7778V5.38888Z" fill="#FFAC33"/>
<path d="M118.111 43.1111C118.111 43.1111 123.5 43.1111 123.5 48.5C123.5 53.8889 118.111 53.8889 118.111 53.8889H112.722C112.722 53.8889 107.333 53.8889 107.333 48.5C107.333 43.1111 112.722 43.1111 112.722 43.1111H118.111Z" fill="#FFAC33"/>
<path d="M37.2778 43.1111C37.2778 43.1111 42.6667 43.1111 42.6667 48.5C42.6667 53.8889 37.2778 53.8889 37.2778 53.8889H31.8889C31.8889 53.8889 26.5 53.8889 26.5 48.5C26.5 43.1111 31.8889 43.1111 31.8889 43.1111H37.2778Z" fill="#FFAC33"/>
<path d="M51.076 19.6534C51.076 19.6534 54.886 23.4633 51.076 27.2733C47.2661 31.0832 43.4561 27.2733 43.4561 27.2733L39.6435 23.4633C39.6435 23.4633 35.8336 19.6534 39.6435 15.8408C43.4561 12.0308 47.2661 15.8408 47.2661 15.8408L51.076 19.6534Z" fill="#FFAC33"/>
<path d="M107.659 76.2338C107.659 76.2338 111.469 80.0438 107.659 83.8537C103.849 87.6637 100.039 83.8537 100.039 83.8537L96.2295 80.0438C96.2295 80.0438 92.4196 76.2338 96.2295 72.4239C100.039 68.614 103.849 72.4239 103.849 72.4239L107.659 76.2338Z" fill="#FFAC33"/>
<path d="M106.547 27.2704C106.547 27.2704 102.737 31.0803 98.9267 27.2704C95.1167 23.4605 98.9267 19.6505 98.9267 19.6505L102.737 15.8406C102.737 15.8406 106.547 12.0306 110.356 15.8406C114.166 19.6505 110.356 23.4605 110.356 23.4605L106.547 27.2704Z" fill="#FFAC33"/>
<path d="M49.9632 83.8537C49.9632 83.8537 46.1533 87.6637 42.3433 83.8537C38.5334 80.0438 42.3433 76.2338 42.3433 76.2338L46.1533 72.4239C46.1533 72.4239 49.9632 68.614 53.7732 72.4239C57.5831 76.2338 53.7732 80.0438 53.7732 80.0438L49.9632 83.8537Z" fill="#FFAC33"/>
<path d="M69.6111 86.2222C69.6111 86.2222 69.6111 80.8333 75 80.8333C80.3889 80.8333 80.3889 86.2222 80.3889 86.2222V91.6111C80.3889 91.6111 80.3889 97 75 97C69.6111 97 69.6111 91.6111 69.6111 91.6111V86.2222Z" fill="#FFAC33"/>
<path d="M101.944 48.5C101.944 33.6186 89.8787 21.5555 75 21.5555C60.1186 21.5555 48.0556 33.6186 48.0556 48.5C48.0556 63.3787 60.1186 75.4444 75 75.4444C89.8787 75.4444 101.944 63.3787 101.944 48.5Z" fill="#FFAC33"/>
<path d="M87.4235 61.531C87.4384 61.3318 87.4459 61.1335 87.446 60.9359C87.4453 58.8338 86.609 56.8109 85.1075 55.2792C83.606 53.7476 81.5522 52.8222 79.3641 52.6915C78.3008 50.0062 76.4571 47.6694 74.0513 45.958C71.6456 44.2466 68.7786 43.2324 65.7901 43.0354C62.8016 42.8384 59.8169 43.4669 57.1895 44.8466C54.5621 46.2262 52.4023 48.299 50.9658 50.8196C50.5045 50.7686 50.0405 50.7426 49.5762 50.7417C47.7182 50.7359 45.8821 51.1257 44.2003 51.883C42.5186 52.6404 41.0331 53.7463 39.8513 55.121C39.6594 55.3445 39.5402 55.6171 39.5085 55.905C39.4768 56.1929 39.5341 56.4834 39.6731 56.7404C39.8122 56.9974 40.0269 57.2095 40.2907 57.3505C40.5544 57.4914 40.8555 57.5549 41.1566 57.5332C41.3191 57.5216 41.4929 57.5224 41.6568 57.5231C45.5062 57.5308 49.2721 58.5992 52.5061 60.6011C55.7401 62.603 58.3058 65.454 59.8978 68.8145C60.0424 69.1203 60.2913 69.3696 60.6035 69.5216C60.9157 69.6736 61.2725 69.719 61.6152 69.6506C64.3121 69.1139 67.1096 69.279 69.7174 70.1287C72.3253 70.9785 74.6485 72.4818 76.446 74.4829C76.5907 74.6451 76.7702 74.7754 76.9724 74.8646C77.1745 74.9539 77.3944 75.0001 77.617 75H89.8656C90.1346 75 90.3989 74.9325 90.6322 74.8042C90.8656 74.6759 91.0598 74.4912 91.1956 74.2686C92.049 72.8676 92.4992 71.2745 92.5 69.652C92.4924 67.986 92.017 66.3527 91.1238 64.9237C90.2305 63.4947 88.9523 62.3227 87.4235 61.531Z" fill="#7CC9F2"/>
<path d="M83.2649 84.4841C82.972 79.8179 80.9099 75.4386 77.4983 72.237C74.0866 69.0354 69.5816 67.2521 64.9 67.25C64.0387 67.25 63.1784 67.3094 62.3252 67.4279C60.3841 63.6893 57.4536 60.5538 53.8523 58.3626C50.2511 56.1713 46.1171 55.0083 41.9 55C41.6634 55 41.4081 55.0015 41.245 55.0153C36.5998 55.1325 32.1003 56.6589 28.3448 59.3915C24.5893 62.1242 21.7557 65.9337 20.2207 70.3136C17.0058 70.3732 13.9426 71.6894 11.6888 73.9797C9.43499 76.2699 8.17044 79.3514 8.1667 82.5625C8.16694 83.0312 8.19444 83.4996 8.24904 83.9651C5.93351 85.106 3.98198 86.8685 2.61328 89.0549C1.24458 91.2413 0.512815 93.7653 0.500033 96.3437C0.494651 98.77 1.13994 101.153 2.36886 103.246C2.50422 103.476 2.69727 103.666 2.9289 103.798C3.16054 103.931 3.42273 104 3.68952 104H20.9854C21.3506 104 21.7039 103.87 21.9816 103.633C22.2592 103.396 22.4431 103.068 22.5 102.707C22.9425 99.9173 24.3673 97.3766 26.5182 95.5421C28.6691 93.7076 31.4049 92.6997 34.2335 92.6997C37.0621 92.6997 39.7979 93.7076 41.9488 95.5421C44.0997 97.3766 45.5245 99.9173 45.967 102.707C46.0239 103.068 46.2078 103.396 46.4854 103.633C46.7631 103.87 47.1164 104 47.4817 104H89.035C89.2816 104 89.5246 103.941 89.7434 103.827C89.9621 103.713 90.1501 103.548 90.2914 103.346C91.7324 101.295 92.5038 98.8495 92.5 96.3437C92.4898 93.6256 91.578 90.9874 89.9071 88.8416C88.2362 86.6958 85.9004 85.1635 83.2649 84.4841Z" fill="#9CD5F2"/>
<path d="M54.6754 97.6933C54.6406 97.0654 54.5728 96.4396 54.4721 95.8183C53.7947 91.687 51.6121 87.9246 48.317 85.2081C45.022 82.4917 40.8308 80.9995 36.4975 81C32.1643 81.0005 27.9735 82.4938 24.6792 85.2111C21.3849 87.9284 19.2033 91.6913 18.527 95.8228C18.427 96.4426 18.3595 97.0669 18.3246 97.6933C15.4475 98.6965 12.9605 100.531 11.2025 102.948C9.44449 105.364 8.50081 108.245 8.5 111.198C8.5 111.676 8.69667 112.134 9.04673 112.472C9.3968 112.81 9.8716 113 10.3667 113H62.6333C63.1284 113 63.6032 112.81 63.9533 112.472C64.3033 112.134 64.5 111.676 64.5 111.198C64.4992 108.245 63.5555 105.364 61.7975 102.948C60.0395 100.531 57.5525 98.6965 54.6754 97.6933Z" fill="#B2EBF2"/>
</svg>
